<svg xmlns="http://www.w3.org/2000/svg" width="54" height="83" viewBox="0 0 54 83">
  <g id="Group_3086" data-name="Group 3086" transform="translate(-2383.706 -6643)">
    <g id="Rectangle_17" data-name="Rectangle 17" transform="translate(2437.706 6645) rotate(90)" fill="none" stroke="#70ad3a" stroke-width="1">
      <rect width="81" height="51" rx="25.5" stroke="none"/>
      <rect x="0.5" y="0.5" width="80" height="50" rx="25" fill="none"/>
    </g>
    <rect id="Rectangle_1854" data-name="Rectangle 1854" width="81" height="52" rx="26" transform="translate(2435.706 6643) rotate(90)" fill="#f5f5f5"/>
    <path id="Union_1" data-name="Union 1" d="M8.715,45.151c.212-.433.437-.847.655-1.245a8.236,8.236,0,0,0,1.386-4.019A8.233,8.233,0,0,0,9.37,35.869a10.563,10.563,0,0,1-1.689-5.206A10.56,10.56,0,0,1,9.37,25.457a8.229,8.229,0,0,0,1.385-4.019A8.222,8.222,0,0,0,9.37,17.42a10.554,10.554,0,0,1-1.689-5.206A10.554,10.554,0,0,1,9.37,7.008c.157-.288.31-.567.453-.843L2.131,13.858,0,11.726,11.724,0,23.45,11.726l-2.132,2.132L12.841,5.381a16.111,16.111,0,0,1-1.3,2.813,8.241,8.241,0,0,0-1.387,4.019,8.248,8.248,0,0,0,1.386,4.019,10.548,10.548,0,0,1,1.689,5.206,10.559,10.559,0,0,1-1.688,5.2,8.236,8.236,0,0,0-1.386,4.018,8.23,8.23,0,0,0,1.386,4.02,10.556,10.556,0,0,1,1.688,5.2,10.551,10.551,0,0,1-1.689,5.206c-.01.02-.021.039-.031.058Z" transform="translate(2397.833 6660.902)" fill="#5d5d5d" stroke="rgba(0,0,0,0)" stroke-miterlimit="10" stroke-width="1" opacity="0.45"/>
  </g>
</svg>
