<svg xmlns="http://www.w3.org/2000/svg" width="69.489" height="69.489" viewBox="0 0 69.489 69.489">
  <g id="Group_3077" data-name="Group 3077" transform="translate(-2262 -3237)">
    <path id="Path_80" data-name="Path 80" d="M69.489,2.736,69.4,2.685C67.094,1.427,64.486,0,61.121,0s-5.973,1.426-8.274,2.684c-2.161,1.182-4.028,2.2-6.389,2.2s-4.227-1.021-6.388-2.2C37.769,1.427,35.161,0,31.8,0s-5.974,1.426-8.275,2.685c-2.161,1.182-4.028,2.2-6.388,2.2s-4.228-1.021-6.389-2.2C8.444,1.427,5.836,0,2.47,0A11.943,11.943,0,0,0,0,.26V4.309a8.373,8.373,0,0,1,2.47-.38c2.361,0,4.228,1.021,6.389,2.2,2.3,1.258,4.909,2.685,8.274,2.685s5.972-1.427,8.274-2.685c2.161-1.182,4.028-2.2,6.389-2.2s4.227,1.021,6.388,2.2c2.3,1.258,4.909,2.684,8.274,2.685s5.973-1.426,8.275-2.685c2.161-1.182,4.028-2.2,6.388-2.2s4.228,1.021,6.389,2.2c.633.346,1.291.7,1.979,1.042Z" transform="translate(2300.567 3237) rotate(90)" fill="#ffa217"/>
    <path id="Path_81" data-name="Path 81" d="M959.516,478.13l-.093-.051c-2.3-1.259-4.909-2.685-8.274-2.685s-5.973,1.426-8.274,2.684c-2.161,1.182-4.028,2.2-6.389,2.2s-4.227-1.021-6.388-2.2c-2.3-1.258-4.909-2.685-8.273-2.684s-5.974,1.426-8.275,2.685c-2.161,1.182-4.028,2.2-6.388,2.2s-4.228-1.021-6.389-2.2c-2.3-1.258-4.909-2.685-8.275-2.685a11.949,11.949,0,0,0-2.47.26V479.7a8.368,8.368,0,0,1,2.47-.38c2.361,0,4.228,1.021,6.389,2.2,2.3,1.258,4.909,2.685,8.274,2.685s5.972-1.427,8.274-2.685c2.161-1.182,4.028-2.2,6.389-2.2s4.227,1.021,6.388,2.2c2.3,1.258,4.909,2.684,8.274,2.685s5.973-1.426,8.275-2.684c2.161-1.182,4.028-2.2,6.388-2.2s4.228,1.021,6.389,2.2c.633.346,1.291.7,1.979,1.042Z" transform="translate(1371.973 2792.649)" fill="#ffa217"/>
  </g>
</svg>
