<svg xmlns="http://www.w3.org/2000/svg" width="33.977" height="4.312" viewBox="0 0 33.977 4.312">
  <g id="Group_43" data-name="Group 43" transform="translate(-890.027 -475.394)">
    <path id="Path_81" data-name="Path 81" d="M924,476.732l-.046-.025a6.891,6.891,0,0,0-8.091,0,5.069,5.069,0,0,1-6.248,0,6.891,6.891,0,0,0-8.091,0,5.067,5.067,0,0,1-6.247,0,8.207,8.207,0,0,0-4.046-1.313,5.845,5.845,0,0,0-1.208.127v1.98a4.093,4.093,0,0,1,1.208-.186,6.4,6.4,0,0,1,3.124,1.077,6.89,6.89,0,0,0,8.091,0,5.069,5.069,0,0,1,6.247,0,6.892,6.892,0,0,0,8.092,0,5.068,5.068,0,0,1,6.247,0c.309.169.631.344.968.509Z" transform="translate(0 0)" fill="#fff"/>
  </g>
</svg>
