<svg xmlns="http://www.w3.org/2000/svg" width="26.603" height="26.606" viewBox="0 0 26.603 26.606">
  <g id="loupe" transform="translate(-0.047 23.691) rotate(-83)">
    <path id="Path_68" data-name="Path 68" d="M21.338,2.58A8.661,8.661,0,0,1,9.54,15.247L8.508,16.279,9.56,17.33a.614.614,0,0,1,0,.869L4.635,23.123A2.715,2.715,0,1,1,.8,19.284L5.72,14.359a.614.614,0,0,1,.869,0L7.64,15.41l1.031-1.032A8.661,8.661,0,0,1,21.338,2.58ZM22.647,8.7a7.432,7.432,0,1,0-2.177,5.255A7.385,7.385,0,0,0,22.647,8.7ZM7.383,18.638l.873-.874-2.1-2.1-.874.873ZM3.766,22.255l2.748-2.748-2.1-2.1L1.664,20.152a1.487,1.487,0,1,0,2.1,2.1Z" transform="translate(0 0)" fill="#fff"/>
    <path id="Path_70" data-name="Path 70" d="M207.925,58.86a6,6,0,1,1-8.483,0A5.979,5.979,0,0,1,207.925,58.86Zm-.869,7.615a4.77,4.77,0,1,0-6.746,0A4.776,4.776,0,0,0,207.057,66.475Z" transform="translate(-188.469 -54.398)" fill="#fff"/>
  </g>
</svg>
