<svg xmlns="http://www.w3.org/2000/svg" width="150" height="135" viewBox="0 0 150 135">
  <g id="Group_3122" data-name="Group 3122" transform="translate(-1418 -1568.838)">
    <g id="pencil" transform="translate(1418 1568.838)">
      <g id="Group_9" data-name="Group 9" transform="translate(72.055 99.766)">
        <g id="Group_8" data-name="Group 8">
          <path id="Path_65" data-name="Path 65" d="M248.945,366a2.945,2.945,0,1,0,2.945,2.945A2.947,2.947,0,0,0,248.945,366Z" transform="translate(-246 -366)" fill="#70ad3a"/>
        </g>
      </g>
      <g id="Group_11" data-name="Group 11" transform="translate(0 0)">
        <g id="Group_10" data-name="Group 10">
          <path id="Path_66" data-name="Path 66" d="M141.211,49.478H124.8V42.141a10.248,10.248,0,0,0-15.146-9.025,10.237,10.237,0,0,0-17.077-4.027c-.026-.027-.05-.054-.076-.081a10.231,10.231,0,0,0-14.576.085,10.243,10.243,0,0,0-17.578,7.179V49.478h-34c-.1,0-.2.007-.3.017-.033,0-.066.01-.1.014-.072.01-.144.022-.216.038l-.1.025q-.107.027-.211.063c-.031.011-.062.021-.092.032-.077.029-.152.062-.226.1-.016.008-.034.013-.05.021l-.048.024-.006,0L1.62,61.527a2.937,2.937,0,0,0,0,5.25L25,78.489l.008,0,.047.023c.016.008.033.013.048.021.075.036.151.069.229.1l.089.031q.106.036.215.064l.1.024c.074.016.147.028.221.039.031,0,.062.01.093.013a3.039,3.039,0,0,0,.315.018H47.042a20.554,20.554,0,0,0,4.666,7.232l10.213,10.23a14.588,14.588,0,0,1,4.289,10.374v7.381h-2.93a2.932,2.932,0,0,0-2.93,2.935v41.087A2.932,2.932,0,0,0,63.281,161h58.594a2.933,2.933,0,0,0,2.93-2.935V116.978a2.933,2.933,0,0,0-2.93-2.935h-2.93v-8.112A25.081,25.081,0,0,1,121.3,95.351a32.8,32.8,0,0,0,3.5-14.021v-2.5h16.406a8.807,8.807,0,0,0,8.789-8.8V58.283A8.807,8.807,0,0,0,141.211,49.478Zm-31.055-7.337a4.395,4.395,0,1,1,8.789,0V56.815a4.395,4.395,0,1,1-8.789,0ZM95.508,52.413V36.272a4.395,4.395,0,1,1,8.789,0V56.815a4.395,4.395,0,1,1-8.789,0ZM80.859,36.272a4.395,4.395,0,1,1,8.789,0V49.478H80.859Zm-14.648,0a4.395,4.395,0,1,1,8.789,0V49.478H66.211ZM25.642,72.247,9.481,64.152l16.161-8.095A13.718,13.718,0,0,1,25.642,72.247ZM45.7,70.022v1.511c0,.475.018.95.051,1.423h-13.7a19.652,19.652,0,0,0,0-17.609h19.8A20.551,20.551,0,0,0,45.7,70.022Zm73.242,85.109H66.211V119.913h52.734Zm0-73.8A27.125,27.125,0,0,1,116,92.854a31,31,0,0,0-2.915,13.078v8.112H72.07v-7.381a20.424,20.424,0,0,0-6.006-14.525L55.852,81.908a14.7,14.7,0,0,1-4.289-10.374V70.022a14.787,14.787,0,0,1,2.93-8.8,14.651,14.651,0,0,1,11.719-5.87H89.279a11.741,11.741,0,0,1-11.35,8.8H69.141a2.935,2.935,0,0,0-.5,5.826A18.146,18.146,0,0,1,80.5,77.566l.021.026A18.254,18.254,0,0,1,83.76,87.91l.029,5.605a2.932,2.932,0,0,0,2.929,2.92h.016a2.932,2.932,0,0,0,2.914-2.95l-.029-5.606a24.143,24.143,0,0,0-1.805-9.053h31.131Zm13.477-8.373H84.372a24.237,24.237,0,0,0-3.1-3.25,17.44,17.44,0,0,0,9.089-4.844,17.882,17.882,0,0,0,1.491-1.7,10.222,10.222,0,0,0,15.379.833A10.243,10.243,0,0,0,124.8,56.815V55.348h7.617Zm11.719-2.935a2.936,2.936,0,0,1-2.93,2.935h-2.93V55.348h2.93a2.936,2.936,0,0,1,2.93,2.935Z" transform="translate(0 -26)" fill="#70ad3a"/>
        </g>
      </g>
      <g id="Group_13" data-name="Group 13" transform="translate(83.68 99.766)">
        <g id="Group_12" data-name="Group 12">
          <path id="Path_67" data-name="Path 67" d="M312.509,366H288.945a2.945,2.945,0,1,0,0,5.891h23.564a2.945,2.945,0,1,0,0-5.891Z" transform="translate(-286 -366)" fill="#70ad3a"/>
        </g>
      </g>
    </g>
  </g>
</svg>
