<svg xmlns="http://www.w3.org/2000/svg" width="53.724" height="13.635" viewBox="0 0 53.724 13.635">
  <g id="Group_42" data-name="Group 42" transform="translate(-890.027 -475.394)">
    <path id="Path_80" data-name="Path 80" d="M943.751,593.058l-.072-.039a10.9,10.9,0,0,0-12.794,0,8.014,8.014,0,0,1-9.879,0,10.9,10.9,0,0,0-12.794,0,8.012,8.012,0,0,1-9.878,0,12.977,12.977,0,0,0-6.4-2.076,9.234,9.234,0,0,0-1.91.2v3.13a6.474,6.474,0,0,1,1.91-.294,10.12,10.12,0,0,1,4.939,1.7,10.894,10.894,0,0,0,12.794,0,8.014,8.014,0,0,1,9.878,0,10.9,10.9,0,0,0,12.794,0,8.014,8.014,0,0,1,9.878,0c.489.267,1,.544,1.53.805Z" transform="translate(0 -108.732)" fill="#70ad3a"/>
    <path id="Path_81" data-name="Path 81" d="M943.751,477.51l-.072-.039a10.9,10.9,0,0,0-12.794,0,8.014,8.014,0,0,1-9.879,0,10.9,10.9,0,0,0-12.794,0,8.012,8.012,0,0,1-9.878,0,12.976,12.976,0,0,0-6.4-2.076,9.238,9.238,0,0,0-1.91.2v3.131a6.47,6.47,0,0,1,1.91-.294,10.12,10.12,0,0,1,4.939,1.7,10.894,10.894,0,0,0,12.794,0,8.014,8.014,0,0,1,9.878,0,10.9,10.9,0,0,0,12.794,0,8.014,8.014,0,0,1,9.878,0c.489.267,1,.544,1.53.805Z" transform="translate(0 0)" fill="#70ad3a"/>
  </g>
</svg>
