<svg xmlns="http://www.w3.org/2000/svg" width="131" height="151" viewBox="0 0 131 151">
  <g id="Group_3121" data-name="Group 3121" transform="translate(-897 -1555.66)">
    <path id="Path_52" data-name="Path 52" d="M314.035,213.284a2.168,2.168,0,0,0,2.168-2.168v-5.265a2.168,2.168,0,0,0-4.335,0v5.265A2.167,2.167,0,0,0,314.035,213.284Zm0,0" transform="translate(675.511 1412.205)" fill="#70ad3a"/>
    <path id="Path_53" data-name="Path 53" d="M308.8,248.68h-7.171a2.168,2.168,0,1,0,0,4.335H308.8a2.168,2.168,0,1,0,0-4.335Zm0,0" transform="translate(684.33 1380.365)" fill="#70ad3a"/>
    <path id="Path_54" data-name="Path 54" d="M126.645,213.284a2.167,2.167,0,0,0,2.168-2.168v-5.265a2.168,2.168,0,0,0-4.335,0v5.265A2.168,2.168,0,0,0,126.645,213.284Zm0,0" transform="translate(808.81 1412.205)" fill="#70ad3a"/>
    <path id="Path_55" data-name="Path 55" d="M121.409,248.68h-7.171a2.168,2.168,0,1,0,0,4.335h7.171a2.168,2.168,0,1,0,0-4.335Zm0,0" transform="translate(817.633 1380.365)" fill="#70ad3a"/>
    <path id="Path_56" data-name="Path 56" d="M214.694,240.772a2.168,2.168,0,0,0-3.059.205,4.381,4.381,0,0,1-6.423,0,2.167,2.167,0,1,0-3.264,2.853,8.714,8.714,0,0,0,12.951,0,2.168,2.168,0,0,0-.205-3.058Zm0,0" transform="translate(754.076 1386.349)" fill="#70ad3a"/>
    <path id="Path_57" data-name="Path 57" d="M.5,5.885v5.767a5.849,5.849,0,0,0,5.8,5.885h4.6v21.05a57.31,57.31,0,0,0-5.7,17.225A13.452,13.452,0,0,0,13.64,79.479,52.761,52.761,0,0,0,41.3,111.623a39.64,39.64,0,0,0-4.2,3.013,0,0,0,0,1,0,0c-6.727,5.517-14.747,15.75-14.747,33.165A2.181,2.181,0,0,0,24.51,150h81.981a2.182,2.182,0,0,0,2.165-2.2c0-17.414-8.02-27.647-14.748-33.165h0a39.919,39.919,0,0,0-4.2-3.013,52.761,52.761,0,0,0,27.658-32.144A13.336,13.336,0,0,0,130.5,66.063a13.474,13.474,0,0,0-4.7-10.253,57.3,57.3,0,0,0-5.7-17.226V17.536H124.7a5.848,5.848,0,0,0,5.8-5.885V5.885A5.849,5.849,0,0,0,124.7,0H35.734a2.181,2.181,0,0,0-2.165,2.2,2.181,2.181,0,0,0,2.165,2.2H124.7a1.481,1.481,0,0,1,1.468,1.49v5.767a1.481,1.481,0,0,1-1.468,1.49H6.3a1.481,1.481,0,0,1-1.469-1.49V5.885A1.481,1.481,0,0,1,6.3,4.395H27.074a2.182,2.182,0,0,0,2.165-2.2A2.182,2.182,0,0,0,27.074,0H6.3A5.849,5.849,0,0,0,.5,5.885ZM12.528,75.007A9.04,9.04,0,0,1,13,57.07c.026,0,.307-.014.421-.017a18.6,18.6,0,0,0-1.859,8.1,50.368,50.368,0,0,0,.971,9.856Zm42.9,41.244c.028.087.059.177.089.268a27.76,27.76,0,0,0,3.428,6.66c.016.023.116.136.109.16-.493,1.926-1.546,6.339-2.351,11.713-.019.127-.039.254-.058.381-.035-.018-.069-.038-.1-.057-5.511-3.109-9.841-8.091-13.025-13.548a46.4,46.4,0,0,1-2.414-4.724c-.007-.015-.014-.029-.019-.043a34.09,34.09,0,0,1,5.3-3.266,55.085,55.085,0,0,0,6.905,2.02c.035.008,2.142.4,2.142.436Zm6.15.771q2.449.172,4.9.126c1.389-.023,2.781-.1,4.164-.224l-.036.081a27.051,27.051,0,0,1-2.135,3.7H62.525a26.843,26.843,0,0,1-2.14-3.711c-.01-.024-.02-.046-.03-.069q.611.055,1.222.1Zm4.994,21.221c-.355.065-.713.126-1.071.176-.359-.049-.715-.111-1.07-.176a24.332,24.332,0,0,1-3.657-.958l-.015,0,.007-.044A118.994,118.994,0,0,1,63.081,125.1h4.837c.781,0,2.269,12.2,2.323,12.182l-.026.008c-.332.114-2.756.79-3.644.953Zm37.706,7.362H96.688v-9.139a2.165,2.165,0,1,0-4.33,0v9.139H38.642v-9.139a2.165,2.165,0,1,0-4.33,0v9.139h-7.59c.551-12.546,5.787-20.641,10.91-25.605,2.193,4.72,7.457,13.981,16.833,19.236a29.883,29.883,0,0,0,10.762,3.58,2.179,2.179,0,0,0,.546,0,30.7,30.7,0,0,0,14.387-5.943c7.136-5.346,11.316-12.8,13.208-16.872,5.123,4.963,10.358,13.058,10.91,25.6ZM84.622,113.8a34.185,34.185,0,0,1,5.3,3.266c-1.467,3.362-5.727,11.8-13.455,17.07q-1.025.7-2.106,1.3c0-.031-.01-.061-.014-.092q-.7-4.722-1.765-9.378-.3-1.294-.62-2.582l-.011-.043a27.74,27.74,0,0,0,3.628-7.088q1.077-.2,2.147-.437a55.069,55.069,0,0,0,6.9-2.019Zm-6.536-2.583a51.763,51.763,0,0,1-25.166,0C35.29,106.776,21.46,93.238,17.23,76.17c-1.6-6.444-2.787-14.089,1.655-19.684,2.935-3.7,7.6-5.2,12.027-6.054,11.051-2.138,22.092.637,32.912,2.785a103.243,103.243,0,0,0,20.318,2.418A61.683,61.683,0,0,0,107.6,50.978c1.03-.423,2.2-1.191,3.35-1.068,1.468.159,2.052,1.492,2.433,2.763a44.992,44.992,0,0,1,.383,23.491c-4.227,17.069-18.054,30.607-35.684,35.049Zm40.385-36.206c.024-.119.044-.238.067-.356a50.509,50.509,0,0,0,.292-17.346,1.072,1.072,0,0,0-.02-.132,8.747,8.747,0,0,1,3.54,1.482l.032.022a9.063,9.063,0,0,1-3.909,16.33Zm-2.705-57.471V36.928H99.459a2.2,2.2,0,0,0,0,4.395H116.62a52.923,52.923,0,0,1,4.244,11.821c-.36-.1-.73-.188-1.1-.255-.417-.078-1.68-.22-1.893-.229-.007-.027-.015-.055-.021-.082a14.677,14.677,0,0,0-1.223-3.6,6.945,6.945,0,0,0-8.772-2.875A57.4,57.4,0,0,1,86.333,51.2c-10.951.39-21.593-2.44-32.28-4.4-9.227-1.7-18.257-2.583-27.835.29a21.186,21.186,0,0,0-10.006,5.8q-.342-.065-.687-.111a13.127,13.127,0,0,0-5.389.372,52.911,52.911,0,0,1,4.244-11.822H90.995a2.2,2.2,0,0,0,0-4.395H15.233V17.536Zm0,0" transform="translate(897 1556.16)" fill="#70ad3a" stroke="#70ad3a" stroke-width="1"/>
  </g>
</svg>
