<svg xmlns="http://www.w3.org/2000/svg" width="150" height="150" viewBox="0 0 150 150">
  <g id="Group_3120" data-name="Group 3120" transform="translate(-358 -1550.626)">
    <g id="diploma" transform="translate(358 1550.626)">
      <path id="Path_58" data-name="Path 58" d="M124,247.377,75.614,231.491a9.766,9.766,0,0,0-13.1-9.928L28.73,192.37a2.465,2.465,0,0,0-3.749.631l-3.8,6.6a14.77,14.77,0,0,0-17.968,6.461l-1.233,2.134a14.795,14.795,0,0,0,5.525,20.273l37.651,19.3a9.879,9.879,0,0,0,1.786,8.321l-7.766,13.45a2.466,2.466,0,0,0,2.774,3.615l7.726-2.071,2.07,7.726a2.464,2.464,0,0,0,2.057,1.8,2.627,2.627,0,0,0,.323.023,2.471,2.471,0,0,0,2.139-1.233L66.9,260.981l25.925,16.747a14.8,14.8,0,0,0,20.222-5.426l1.233-2.133,11.1-19.223a2.465,2.465,0,0,0-1.369-3.576ZM68.265,226.535a4.931,4.931,0,0,1,1.8,6.737l-11.1,19.235a4.932,4.932,0,0,1-8.542-4.932l11.1-19.221a4.932,4.932,0,0,1,6.752-1.819ZM27.772,198.051l24.7,21.347L25.5,201.982ZM5.267,218.144a9.815,9.815,0,0,1,.986-7.486l1.233-2.134a9.863,9.863,0,0,1,13.368-3.674l35.369,22.84-9,15.585L9.861,224.133a9.79,9.79,0,0,1-4.594-5.988Zm49.7,53.633L53.8,267.421a2.465,2.465,0,0,0-3.021-1.742l-4.358,1.166,4.464-7.728a9.808,9.808,0,0,0,10.4-1.758l1.463.942ZM95.4,273.52,64.182,253.356l9.245-16.013,32.961,16.9A9.864,9.864,0,0,1,110,267.72l-1.233,2.134A9.866,9.866,0,0,1,95.4,273.52Zm20.079-15.289a14.727,14.727,0,0,0-6.725-8.325L96.021,243.4l23.557,7.733Zm0,0" transform="translate(0 -130.633)" fill="#70ad3a"/>
      <path id="Path_59" data-name="Path 59" d="M233.316,27.152l3.06-9.455a2.467,2.467,0,0,0-1.233-2.96L226.3,10.22l-4.52-8.85a2.465,2.465,0,0,0-2.96-1.233l-9.453,3.071L199.912.146a2.466,2.466,0,0,0-2.959,1.233l-4.516,8.841-8.85,4.52c-.04.022-.067.059-.106.082H140.318a12.345,12.345,0,0,0-12.33,12.33V61.061a2.466,2.466,0,0,0,4.932,0V27.152a7.4,7.4,0,0,1,7.4-7.4H183.03l2.394,7.4-3.06,9.455a2.464,2.464,0,0,0,1.233,2.959l8.85,4.52,4.52,8.85a2.465,2.465,0,0,0,2.96,1.233l9.442-3.072,2.466.8v54.171a2.466,2.466,0,1,0,4.932,0V53.492l2.06.666a2.464,2.464,0,0,0,2.959-1.233l4.52-8.85,8.85-4.52a2.465,2.465,0,0,0,1.233-2.96Zm-4.932.759,2.658,8.215-7.689,3.929a2.456,2.456,0,0,0-1.073,1.075l-3.934,7.688-8.217-2.658a2.434,2.434,0,0,0-1.516,0L200.4,48.819l-3.929-7.688a2.455,2.455,0,0,0-1.075-1.075L187.7,36.126l2.658-8.215a2.408,2.408,0,0,0,0-1.518L187.7,18.178l7.688-3.929a2.459,2.459,0,0,0,1.075-1.074l3.929-7.69,8.217,2.659a2.452,2.452,0,0,0,1.516,0l8.217-2.659,3.929,7.69a2.46,2.46,0,0,0,1.073,1.074l7.688,3.929-2.659,8.215a2.477,2.477,0,0,0,0,1.518Zm0,0" transform="translate(-86.51 -0.016)" fill="#70ad3a"/>
      <path id="Path_60" data-name="Path 60" d="M364.319,48.047a12.33,12.33,0,1,0,12.33,12.33,12.33,12.33,0,0,0-12.33-12.33Zm0,19.729a7.4,7.4,0,1,1,7.4-7.4A7.4,7.4,0,0,1,364.319,67.776Zm0,0" transform="translate(-241.46 -33.241)" fill="#70ad3a"/>
      <path id="Path_61" data-name="Path 61" d="M194.454,196.979h41.924a2.466,2.466,0,0,0,0-4.932H194.454a2.466,2.466,0,1,0,0,4.932Zm0,0" transform="translate(-131.621 -132.013)" fill="#70ad3a"/>
      <path id="Path_62" data-name="Path 62" d="M252.979,232.047H218.454a2.466,2.466,0,0,0,0,4.932h34.525a2.466,2.466,0,0,0,0-4.932Zm0,0" transform="translate(-148.166 -159.508)" fill="#70ad3a"/>
      <path id="Path_63" data-name="Path 63" d="M291.717,272.047H274.454a2.466,2.466,0,0,0,0,4.932h17.263a2.466,2.466,0,1,0,0-4.932Zm0,0" transform="translate(-186.796 -187.003)" fill="#70ad3a"/>
      <path id="Path_64" data-name="Path 64" d="M199.386,116.979h14.8a2.466,2.466,0,0,0,0-4.932h-14.8a7.4,7.4,0,1,0,0,14.8h14.8a2.466,2.466,0,0,0,0-4.932h-14.8a2.466,2.466,0,1,1,0-4.932Zm0,0" transform="translate(-131.834 -76.987)" fill="#70ad3a"/>
    </g>
  </g>
</svg>
